<svg xmlns="http://www.w3.org/2000/svg" viewBox="0 0 50 50"><path d="M.12 14.16c.36 3.39 1.93 7.61 4.34 11.65 3.33 5.58 8.92 11.93 14.46 16.41 5.61 4.53 11.45 7.26 16.59 7.73.98.09 3.27.03 4.23-.1 1.76-.25 3.37-.82 5.25-1.87 1.86-1.04 2.58-1.61 3.44-2.76.54-.73.65-.93.91-1.66.46-1.33.72-3.11.55-3.83-.16-.56-.43-1.07-.81-1.5-.22-.23-1.29-.92-4.5-2.88-1.48-.92-2.98-1.81-4.48-2.69-.27-.1-.54-.19-.82-.25-.43-.11-.87-.14-1.31-.1-1.18.05-1.31.11-2.12.94-.38.39-1.12 1.25-1.66 1.92-1.2 1.5-2.27 2.6-2.78 2.85-.23.14-.49.19-.75.14-.53-.04-1.2-.33-2.3-.98-.56-.34-1.13-.67-1.69-1-3.7-2.18-6.96-4.92-9.43-7.95-1.6-1.96-2.5-3.33-4.8-7.27-.31-.53-.61-1.38-.61-1.74 0-.77.98-1.83 3.6-3.88.37-.29.99-.84 1.38-1.22.62-.61.71-.73.82-1.06.17-.53.16-1.62 0-2.1-.07-.19-.92-1.72-1.9-3.41l-2.47-4.26c-1.18-2.04-1.29-2.21-1.62-2.5C11.05.3 10.32.02 9.56 0c-.7 0-2.49.39-3.47.77-1.06.41-2.42 1.54-3.11 2.61-.52.8-1.38 2.37-1.71 3.12C.67 7.84.28 9.27.12 10.73c-.08 1.14-.08 2.29 0 3.44z" fill="#fff"/></svg>