<svg width="42" height="42" fill="none" xmlns="http://www.w3.org/2000/svg"><path d="M32.446 7.21l-9.625-3.605c-.997-.368-2.625-.368-3.622 0L9.574 7.21c-1.855.7-3.36 2.87-3.36 4.847v14.175c0 1.418.927 3.29 2.065 4.13l9.625 7.193c1.697 1.277 4.48 1.277 6.177 0l9.625-7.193c1.138-.857 2.065-2.712 2.065-4.13V12.057c.018-1.977-1.487-4.147-3.325-4.847zm-5.355 9.8l-7.525 7.525a1.298 1.298 0 01-.927.385c-.333 0-.665-.123-.928-.385l-2.8-2.835a1.32 1.32 0 010-1.855 1.32 1.32 0 011.855 0l1.89 1.89 6.598-6.598a1.32 1.32 0 011.855 0 1.326 1.326 0 01-.018 1.873z" fill="url(#prefix__paint0_linear_168_34)"/><defs><linearGradient id="prefix__paint0_linear_168_34" x1="20.993" y1="3.329" x2="20.993" y2="38.513" gradientUnits="userSpaceOnUse"><stop stop-color="#7E222B"/><stop offset="1" stop-color="#AA2E29"/></linearGradient></defs></svg>