<?xml version="1.0" encoding="UTF-8"?>
<svg id="a" data-name="Warranties" xmlns="http://www.w3.org/2000/svg" xmlns:xlink="http://www.w3.org/1999/xlink" viewBox="0 0 55 50">
  <defs>
    <linearGradient id="b" x1="27.5" y1="52" x2="27.5" y2="2" gradientTransform="translate(0 52) scale(1 -1)" gradientUnits="userSpaceOnUse">
      <stop offset="0" stop-color="#7f232c"/>
      <stop offset="1" stop-color="#ab2f29"/>
    </linearGradient>
  </defs>
  <path d="M43.78,5.52L30.1.39c-1.42-.52-3.73-.52-5.15,0l-13.68,5.12c-2.64.99-4.77,4.08-4.77,6.89v20.14c0,2.02,1.32,4.68,2.93,5.87l13.68,10.22c2.41,1.81,6.37,1.81,8.78,0l13.68-10.22c1.62-1.22,2.93-3.85,2.93-5.87V12.4c.03-2.81-2.11-5.89-4.73-6.89ZM36.17,19.44l-10.69,10.69c-.35.35-.82.55-1.32.55-.47,0-.95-.17-1.32-.55l-3.98-4.03c-.72-.73-.72-1.91,0-2.64.73-.72,1.91-.72,2.64,0l2.69,2.69,9.38-9.38c.73-.72,1.91-.72,2.64,0,.73.74.72,1.93-.03,2.66Z" style="fill: url(#b); stroke-width: 0px;"/>
</svg>