<svg xmlns="http://www.w3.org/2000/svg" viewBox="0 0 50 50">
  <path d="M1.67,6.69c0-1.86,1.5-3.36,3.36-3.36h39.95c1.85,0,3.36,1.5,3.36,3.36v39.95c0,1.86-1.5,3.36-3.36,3.36H5.02c-1.85,0-3.36-1.5-3.36-3.35,0,0,0,0,0,0,0,0,0-39.95,0-39.95ZM5,16.66h40v30H5v-29.99h0ZM11.67,1.67C11.67.75,12.38,0,13.35,0h3.3C17.58,0,18.34.77,18.34,1.67v1.67h-6.67v-1.67h0ZM31.67,1.67c0-.92.71-1.67,1.68-1.67h3.3c.93,0,1.68.77,1.68,1.67v1.67h-6.67s0-1.67,0-1.67Z" style="fill: #fff; fill-rule: evenodd; stroke-width: 0px;"/>
</svg>