<svg xmlns="http://www.w3.org/2000/svg" xmlns:xlink="http://www.w3.org/1999/xlink" viewBox="0 0 598.96 116.74">
  <defs>
    <style>
      .cls-1 {
        fill: #7c212a;
      }

      .cls-2 {
        fill: url(#linear-gradient);
      }
    </style>
    <linearGradient id="linear-gradient" x1="12.97" y1="114.73" x2="64.96" y2="36.75" gradientUnits="userSpaceOnUse">
      <stop offset="0" stop-color="#bc3428" />
      <stop offset="1" stop-color="#7c212a" />
    </linearGradient>
  </defs>
  <title>Thermaze Logo</title>
  <path class="cls-1" d="M121,39.09V27.74H171.3V39.09H152.9v50H139.41v-50Z" />
  <path class="cls-1" d="M191.85,27.74V51.3h24.84V27.74h13.49V89.12H216.69V62.64H191.85V89.12h-13.5V27.74Z" />
  <path class="cls-1" d="M288,27.74V39.09H255.54V52.24h29.74V62.73H255.54v15h33.1V89.12H242.05V27.74Z" />
  <path class="cls-1"
    d="M330.85,27.74a19.75,19.75,0,0,1,7.43,1.33A17.1,17.1,0,0,1,344,32.73a15.65,15.65,0,0,1,3.61,5.37,17.23,17.23,0,0,1,1.25,6.57A18.43,18.43,0,0,1,346.53,54a14.26,14.26,0,0,1-7.43,6v.18a10.23,10.23,0,0,1,4.12,2.1,11.76,11.76,0,0,1,2.67,3.35,15.36,15.36,0,0,1,1.5,4.26,37,37,0,0,1,.65,4.64c0,1,.11,2.12.17,3.44s.16,2.66.3,4A26.09,26.09,0,0,0,349.2,86a9,9,0,0,0,1.41,3.14H337.12a23.91,23.91,0,0,1-1.38-7q-.25-4-.77-7.73-.69-4.82-2.92-7t-7.31-2.24H311.25v24h-13.5V27.74ZM326,55.51q4.65,0,7-2.07c1.55-1.37,2.32-3.61,2.32-6.7s-.77-5.14-2.32-6.49-3.86-2-7-2H311.25V55.51Z" />
  <path class="cls-1"
    d="M378.81,27.74,393.17,70h.17l13.58-42.21h19V89.12H413.28V45.62h-.17l-15,43.5H387.66l-15-43.07h-.17V89.12H359.81V27.74Z" />
  <path class="cls-1"
    d="M468.38,27.74l23,61.38h-14l-4.64-13.67H449.73l-4.81,13.67H431.33l23.21-61.38Zm.78,37.65-7.74-22.52h-.17l-8,22.52Z" />
  <path class="cls-1" d="M525.63,39.09H495.29V27.74H543.6V38.4L510.68,77.77h33.78V89.12H492.71V78.46Z" />
  <path class="cls-1" d="M598.27,27.74V39.09H565.86V52.24h29.75V62.73H565.86v15H599V89.12H552.37V27.74Z" />
  <path class="cls-2"
    d="M50.55,0,0,29.19V87.55l50.55,29.19L101.1,87.55V29.19ZM91.6,34.67V76.58L14.26,31.93,50.55,11ZM41.05,58.37,9.5,76.58V40.16ZM14.26,84.81l36.29-21,36.29,21-36.29,21Z" />
</svg>